<?xml version="1.0" standalone="no"?>
<!DOCTYPE svg PUBLIC "-//W3C//DTD SVG 20010904//EN"
 "http://www.w3.org/TR/2001/REC-SVG-20010904/DTD/svg10.dtd">
<svg version="1.0" xmlns="http://www.w3.org/2000/svg"
 width="3610.000000pt" height="1490.000000pt" viewBox="0 0 3610.000000 1490.000000"
 preserveAspectRatio="xMidYMid meet">
<metadata>
Created by potrace 1.16, written by Peter Selinger 2001-2019
</metadata>
<g transform="translate(0.000000,1490.000000) scale(0.100000,-0.100000)"
fill="#000000" stroke="none">
<path d="M7075 11153 c-447 -57 -870 -273 -1200 -614 -283 -292 -474 -625
-608 -1059 -304 -982 -184 -2036 346 -3019 l83 -155 -19 -40 c-33 -68 -47
-136 -47 -231 1 -165 42 -268 155 -380 110 -111 222 -157 380 -157 158 0 270
46 380 157 111 111 155 219 155 380 0 156 -45 269 -150 376 -103 105 -204 149
-364 158 l-110 6 -63 115 c-212 387 -350 810 -409 1261 -22 169 -30 572 -14
752 22 266 78 534 155 743 87 238 246 521 400 712 226 280 653 487 1095 532
444 44 857 -183 1154 -634 192 -292 356 -733 382 -1032 l7 -72 86 -22 c47 -13
154 -45 237 -72 84 -26 156 -48 162 -48 10 0 9 30 -14 215 -111 914 -574 1650
-1241 1971 -238 115 -465 165 -736 163 -95 -1 -185 -4 -202 -6z"/>
<path d="M22930 8945 c0 -410 -3 -745 -6 -745 -3 0 -22 13 -42 30 -102 81
-269 155 -412 181 -98 18 -338 15 -443 -5 -561 -108 -958 -604 -1038 -1295
-17 -155 -7 -523 20 -676 101 -585 386 -960 816 -1077 100 -27 303 -34 430
-15 246 38 434 130 639 312 75 68 96 81 100 67 60 -207 78 -252 118 -289 53
-50 75 -53 408 -53 l310 0 0 2155 0 2155 -450 0 -450 0 0 -745z m-323 -1201
c103 -21 185 -60 261 -123 l62 -52 0 -634 0 -634 -56 -60 c-114 -123 -250
-192 -419 -211 -284 -33 -447 113 -521 470 -21 103 -30 465 -15 597 57 489
308 726 688 647z"/>
<path d="M14770 7481 l0 -2101 490 0 490 0 0 776 0 777 168 -5 c191 -5 245
-21 305 -87 18 -20 196 -322 396 -671 200 -349 375 -648 389 -665 41 -49 109
-92 175 -109 54 -15 122 -17 544 -14 l483 3 -459 750 c-501 820 -523 851 -675
953 l-73 49 60 23 c190 76 408 249 539 426 92 126 171 311 205 481 22 110 24
393 4 503 -102 567 -515 888 -1269 987 -94 12 -279 16 -944 20 l-828 5 0
-2101z m1530 1349 c192 -24 316 -76 417 -176 111 -109 160 -255 150 -438 -3
-56 -13 -128 -22 -161 -59 -223 -228 -374 -477 -426 -78 -16 -136 -19 -355
-19 l-263 0 0 615 0 615 233 0 c128 0 271 -5 317 -10z"/>
<path d="M6725 8950 c-278 -56 -467 -325 -426 -607 22 -153 126 -311 254 -386
164 -97 367 -100 538 -11 78 41 179 141 219 217 l25 47 180 0 c303 0 570 -33
862 -105 702 -173 1390 -592 1783 -1085 307 -386 490 -833 490 -1200 0 -334
-146 -667 -409 -931 -207 -208 -440 -327 -754 -386 -149 -28 -451 -23 -637 10
-164 29 -343 78 -477 131 -49 20 -94 36 -100 36 -5 0 -47 -32 -93 -71 -46 -39
-141 -115 -212 -170 -70 -55 -128 -103 -128 -107 0 -12 242 -111 384 -157 140
-45 293 -83 456 -111 149 -25 532 -31 698 -10 499 64 961 288 1284 624 237
246 374 521 423 846 20 137 20 421 -1 567 -46 336 -179 678 -375 972 -455 683
-1187 1206 -2024 1446 -385 110 -747 161 -1158 164 l-215 2 -26 41 c-40 62
-135 148 -204 183 -108 54 -243 74 -357 51z"/>
<path d="M19157 8389 c-524 -92 -938 -450 -1102 -953 -59 -183 -69 -261 -69
-521 1 -279 17 -398 83 -595 204 -609 692 -963 1361 -987 517 -19 964 128
1260 413 50 48 90 92 90 99 0 14 -262 340 -295 367 -33 27 -100 41 -163 34
-43 -5 -102 -28 -242 -95 -245 -118 -291 -132 -460 -138 -165 -6 -248 9 -369
67 -115 56 -211 152 -270 270 -38 79 -79 216 -95 318 l-6 42 897 0 c1023 0
947 -6 993 85 24 49 25 56 25 260 0 178 -4 227 -23 323 -112 556 -480 918
-1030 1013 -155 26 -431 25 -585 -2z m446 -614 c143 -30 263 -123 323 -250 36
-73 64 -183 64 -247 l0 -38 -545 0 c-515 0 -545 1 -545 18 0 35 41 165 71 225
103 205 261 302 499 306 36 0 95 -6 133 -14z"/>
<path d="M24280 7428 c0 -968 5 -1142 39 -1298 90 -411 352 -687 736 -776 98
-23 385 -26 480 -6 234 52 422 148 590 303 42 39 43 40 50 17 54 -190 78 -233
148 -267 41 -20 59 -21 360 -21 l317 0 0 1495 0 1495 -450 0 -450 0 0 -1063 0
-1064 -37 -30 c-71 -55 -165 -115 -227 -143 -89 -40 -160 -55 -261 -54 -184 2
-288 72 -357 243 l-23 56 -3 1028 -2 1027 -455 0 -455 0 0 -942z"/>
<path d="M27190 8365 c0 -3 216 -328 479 -724 l479 -718 -499 -769 -500 -769
432 -3 c497 -3 481 -5 563 91 47 57 510 836 536 904 8 23 18 44 20 47 3 2 127
-205 275 -461 149 -255 282 -479 297 -498 16 -18 51 -45 80 -59 l52 -26 468 0
c257 0 468 2 468 4 0 2 -223 355 -495 786 -272 430 -495 786 -495 792 0 6 213
320 473 699 259 379 474 694 475 699 5 14 -840 13 -891 -1 -70 -19 -104 -68
-342 -484 -126 -220 -235 -417 -243 -437 -8 -21 -18 -38 -21 -38 -3 0 -116
183 -251 407 -307 510 -304 506 -354 534 l-41 24 -482 3 c-266 2 -483 0 -483
-3z"/>
<path d="M4570 7723 c-543 -435 -867 -966 -954 -1564 -20 -137 -21 -438 -1
-577 54 -383 201 -710 421 -942 281 -294 645 -477 1119 -561 154 -27 480 -37
651 -19 330 33 768 148 1088 285 824 352 1442 924 1872 1731 l48 91 57 12
c186 38 359 215 399 408 17 80 8 223 -19 298 -53 149 -177 273 -328 327 -80
29 -228 36 -310 14 -99 -25 -181 -72 -254 -145 -78 -79 -122 -162 -146 -276
-30 -149 11 -322 106 -439 17 -21 31 -42 31 -46 0 -4 -21 -45 -46 -91 -288
-520 -708 -933 -1304 -1279 -497 -289 -899 -414 -1371 -427 -440 -13 -752 63
-1030 249 -268 179 -474 502 -551 861 -28 132 -30 348 -5 487 53 289 214 601
451 877 92 107 228 239 308 300 21 15 37 33 38 40 0 6 -15 65 -34 130 -19 65
-47 173 -62 241 -16 67 -31 122 -35 122 -3 0 -66 -48 -139 -107z"/>
</g>
</svg>
