<?xml version="1.0" encoding="UTF-8" standalone="no"?>
<!-- Created with Inkscape (http://www.inkscape.org/) -->

<svg
   xmlns:dc="http://purl.org/dc/elements/1.1/"
   xmlns:cc="http://creativecommons.org/ns#"
   xmlns:rdf="http://www.w3.org/1999/02/22-rdf-syntax-ns#"
   xmlns:svg="http://www.w3.org/2000/svg"
   xmlns="http://www.w3.org/2000/svg"
   xmlns:sodipodi="http://sodipodi.sourceforge.net/DTD/sodipodi-0.dtd"
   xmlns:inkscape="http://www.inkscape.org/namespaces/inkscape"
   version="1.1"
   id="svg1398"
   xml:space="preserve"
   width="880"
   height="880"
   viewBox="0 0 880 880"
   sodipodi:docname="college-diploma-hat-publicdomainvectors.org.svg"
   inkscape:version="0.92.4 (5da689c313, 2019-01-14)"><metadata
     id="metadata1404"><rdf:RDF><cc:Work
         rdf:about=""><dc:format>image/svg+xml</dc:format><dc:type
           rdf:resource="http://purl.org/dc/dcmitype/StillImage" /><dc:title></dc:title></cc:Work></rdf:RDF></metadata><defs
     id="defs1402"><clipPath
       clipPathUnits="userSpaceOnUse"
       id="clipPath1414"><path
         d="M 0,660 H 660 V 0 H 0 Z"
         id="path1412"
         inkscape:connector-curvature="0" /></clipPath></defs><sodipodi:namedview
     pagecolor="#ffffff"
     bordercolor="#666666"
     borderopacity="1"
     objecttolerance="10"
     gridtolerance="10"
     guidetolerance="10"
     inkscape:pageopacity="0"
     inkscape:pageshadow="2"
     inkscape:window-width="724"
     inkscape:window-height="480"
     id="namedview1400"
     showgrid="false"
     inkscape:zoom="0.26818182"
     inkscape:cx="440"
     inkscape:cy="440"
     inkscape:window-x="0"
     inkscape:window-y="0"
     inkscape:window-maximized="0"
     inkscape:current-layer="g1406" /><g
     id="g1406"
     inkscape:groupmode="layer"
     inkscape:label="college-diploma-hat-publicdomainvectors.org"
     transform="matrix(1.3333333,0,0,-1.3333333,0,880)"><g
       id="g1408"><g
         id="g1410"
         clip-path="url(#clipPath1414)"><path
           d="m 353.452,273.956 0.166,-0.015 c -0.051,0.007 -0.103,0.013 -0.153,0.018 z"
           style="fill:#b3b3b3;fill-opacity:1;fill-rule:nonzero;stroke:none"
           id="path1416"
           inkscape:connector-curvature="0" /><path
           d="m 104.522,247.247 c -2.978,-2.164 -6.604,-3.243 -10.187,-3.485 -3.601,-0.266 -7.194,0.248 -10.625,1.189 -6.871,1.912 -13.179,5.48 -18.581,10.03 -5.388,4.557 -9.891,10.284 -12.449,16.859 2.759,-6.492 7.392,-12.026 12.804,-16.43 5.44,-4.384 11.747,-7.755 18.487,-9.469 3.363,-0.84 6.847,-1.257 10.268,-0.967 3.411,0.276 6.774,1.343 9.482,3.369 1.362,0.994 2.53,2.234 3.508,3.606 0.989,1.387 1.687,2.895 2.353,4.534 1.244,3.174 2.063,6.584 2.544,10.008 0.961,6.863 0.755,13.907 -0.567,20.699 -1.303,6.784 -3.797,13.379 -7.608,19.109 -1.908,2.854 -4.157,5.483 -6.756,7.676 -2.594,2.172 -5.566,3.949 -8.785,4.734 -0.799,0.21 -1.615,0.332 -2.428,0.406 -0.357,0.04 -0.856,0.045 -1.276,0.071 -0.411,-0.009 -0.811,0.009 -1.23,-0.016 -1.667,-0.064 -3.314,-0.333 -4.872,-0.859 -3.13,-1.029 -5.824,-3.125 -7.771,-5.82 -1.966,-2.692 -3.251,-5.887 -4.061,-9.187 -0.804,-3.31 -1.158,-6.746 -1.156,-10.179 0.016,-3.434 0.379,-6.877 1.135,-10.223 0.763,-3.341 1.885,-6.595 3.624,-9.503 1.747,-2.987 3.719,-5.838 5.988,-8.418 2.266,-2.566 4.831,-4.898 7.757,-6.543 2.878,-1.638 6.303,-2.55 9.279,-1.52 1.466,0.513 2.755,1.477 3.737,2.742 0.987,1.263 1.703,2.774 2.195,4.367 0.998,3.202 1.177,6.673 1.069,10.11 -0.126,3.439 -0.648,6.874 -1.541,10.208 -0.894,3.332 -2.158,6.574 -3.816,9.593 -1.665,3 -3.722,5.848 -6.368,7.949 -1.317,1.031 -2.811,1.863 -4.387,2.116 -1.569,0.26 -3.167,-0.194 -4.366,-1.279 -1.233,-1.066 -2.062,-2.537 -2.766,-4.136 -0.701,-1.564 -1.28,-3.195 -1.706,-4.867 -1.695,-6.612 -0.836,-13.882 2.193,-20.031 l 21.786,7.914 -21.835,-8.516 -0.223,-0.087 -0.111,0.206 c -3.354,6.281 -4.453,13.759 -2.857,20.765 0.395,1.747 0.955,3.459 1.675,5.112 0.683,1.612 1.575,3.32 3.007,4.591 1.389,1.321 3.487,1.97 5.399,1.661 1.923,-0.283 3.606,-1.218 5.062,-2.318 2.915,-2.247 5.094,-5.201 6.882,-8.302 1.777,-3.12 3.137,-6.46 4.118,-9.905 0.979,-3.448 1.577,-7.002 1.764,-10.592 0.17,-3.573 -0.015,-7.237 -1.087,-10.78 -0.537,-1.762 -1.332,-3.495 -2.508,-5.013 -1.163,-1.521 -2.787,-2.771 -4.647,-3.424 -1.863,-0.651 -3.874,-0.697 -5.733,-0.343 -1.871,0.352 -3.615,1.073 -5.225,1.964 -3.226,1.799 -5.945,4.27 -8.338,6.951 -2.393,2.696 -4.451,5.65 -6.269,8.723 -1.89,3.132 -3.103,6.611 -3.917,10.111 -0.811,3.515 -1.207,7.107 -1.24,10.705 -0.015,3.598 0.318,7.217 1.205,10.739 0.881,3.511 2.273,6.969 4.478,9.965 2.177,2.995 5.302,5.419 8.884,6.572 1.78,0.59 3.639,0.882 5.486,0.944 0.459,0.025 0.939,0.005 1.408,0.008 0.457,-0.028 0.839,-0.028 1.357,-0.081 0.935,-0.088 1.865,-0.235 2.766,-0.474 3.635,-0.911 6.847,-2.878 9.616,-5.214 2.769,-2.36 5.122,-5.143 7.106,-8.143 3.961,-6.017 6.502,-12.858 7.819,-19.879 1.27,-7.032 1.373,-14.252 0.287,-21.304 -0.552,-3.532 -1.424,-6.996 -2.799,-10.357 -0.676,-1.607 -1.485,-3.304 -2.567,-4.771 -1.082,-1.475 -2.375,-2.809 -3.87,-3.871 m 106.953,35.735 c -4.295,3.509 -8.14,6.647 -12.029,8.733 24.286,10.736 62.273,17.392 66.723,20.856 10.59,15.035 0.406,57.494 -26.297,56.316 0.279,-0.193 0.555,-0.386 0.851,-0.579 0.758,-0.587 1.592,-1.158 2.38,-1.843 0.398,-0.336 0.803,-0.677 1.213,-1.022 0.391,-0.366 0.787,-0.736 1.186,-1.11 0.816,-0.726 1.541,-1.575 2.31,-2.369 0.704,-0.859 1.451,-1.678 2.074,-2.576 0.637,-0.887 1.259,-1.759 1.754,-2.675 0.557,-0.876 0.967,-1.795 1.356,-2.661 0.441,-0.842 0.629,-1.737 0.913,-2.508 0.146,-0.388 0.232,-0.774 0.291,-1.148 0.071,-0.369 0.137,-0.718 0.2,-1.048 0.159,-0.652 0.169,-1.238 0.185,-1.717 0.041,-0.955 0.065,-1.502 0.065,-1.502 0,0 -0.06,0.543 -0.164,1.492 -0.047,0.475 -0.094,1.05 -0.295,1.687 -0.083,0.319 -0.171,0.66 -0.264,1.018 -0.082,0.361 -0.19,0.734 -0.36,1.107 -0.331,0.742 -0.566,1.593 -1.054,2.391 -0.436,0.82 -0.89,1.684 -1.491,2.501 -0.537,0.857 -1.199,1.666 -1.873,2.484 -0.658,0.828 -1.44,1.578 -2.172,2.361 -0.801,0.723 -1.548,1.494 -2.386,2.144 -0.408,0.335 -0.815,0.667 -1.215,0.996 -0.417,0.307 -0.83,0.609 -1.235,0.908 -0.8,0.609 -1.64,1.103 -2.4,1.617 -0.799,0.45 -1.525,0.932 -2.242,1.274 -0.003,0.001 -0.005,0.003 -0.008,0.004 l -8.366,-3.382 c 0.252,-0.172 0.501,-0.346 0.767,-0.521 0.739,-0.565 1.546,-1.121 2.313,-1.78 0.387,-0.324 0.779,-0.654 1.176,-0.988 0.381,-0.353 0.767,-0.711 1.157,-1.071 0.787,-0.707 1.503,-1.515 2.248,-2.287 0.69,-0.823 1.415,-1.616 2.028,-2.48 0.628,-0.85 1.229,-1.697 1.725,-2.574 0.544,-0.846 0.956,-1.727 1.343,-2.562 0.425,-0.818 0.641,-1.668 0.914,-2.419 0.143,-0.377 0.235,-0.752 0.3,-1.114 0.071,-0.34 0.137,-0.665 0.195,-0.973 0.002,-0.014 0.004,-0.027 0.008,-0.04 0.151,-0.63 0.182,-1.193 0.193,-1.657 0.042,-0.925 0.066,-1.455 0.066,-1.455 0,0 -0.061,0.526 -0.164,1.445 -0.042,0.46 -0.112,1.013 -0.304,1.629 -0.08,0.308 -0.17,0.635 -0.266,0.98 -0.088,0.348 -0.201,0.706 -0.368,1.068 -0.318,0.719 -0.581,1.528 -1.052,2.3 -0.434,0.787 -0.89,1.615 -1.477,2.402 -0.537,0.817 -1.178,1.601 -1.843,2.383 -0.648,0.793 -1.408,1.518 -2.127,2.266 -0.774,0.7 -1.514,1.432 -2.325,2.065 -0.4,0.322 -0.798,0.643 -1.19,0.96 -0.402,0.294 -0.801,0.585 -1.193,0.869 -0.785,0.588 -1.601,1.071 -2.346,1.565 -0.691,0.389 -1.327,0.792 -1.948,1.112 l -8.402,-3.397 c 0.17,-0.115 0.334,-0.228 0.51,-0.345 0.719,-0.542 1.497,-1.085 2.244,-1.719 0.377,-0.31 0.756,-0.628 1.139,-0.952 0.372,-0.34 0.747,-0.685 1.127,-1.031 0.76,-0.689 1.467,-1.455 2.185,-2.205 0.678,-0.788 1.381,-1.556 1.983,-2.385 0.619,-0.813 1.201,-1.635 1.697,-2.472 0.53,-0.817 0.946,-1.662 1.331,-2.464 0.408,-0.793 0.654,-1.6 0.915,-2.329 0.139,-0.37 0.237,-0.731 0.308,-1.08 0.075,-0.328 0.143,-0.641 0.197,-0.939 0.003,-0.014 0.006,-0.026 0.008,-0.04 0.144,-0.608 0.195,-1.146 0.202,-1.597 0.042,-0.896 0.066,-1.408 0.066,-1.408 0,0 -0.06,0.508 -0.165,1.398 -0.037,0.445 -0.128,0.976 -0.312,1.572 -0.077,0.297 -0.168,0.61 -0.268,0.939 -0.094,0.335 -0.212,0.681 -0.374,1.031 -0.305,0.697 -0.598,1.462 -1.051,2.209 -0.432,0.755 -0.89,1.545 -1.462,2.302 -0.539,0.779 -1.159,1.537 -1.815,2.282 -0.636,0.761 -1.373,1.459 -2.08,2.173 -0.749,0.679 -1.481,1.37 -2.264,1.983 -0.393,0.31 -0.781,0.62 -1.167,0.926 -0.387,0.283 -0.771,0.56 -1.151,0.831 -0.768,0.565 -1.562,1.038 -2.292,1.511 -0.583,0.33 -1.128,0.657 -1.659,0.941 l -8.423,-3.405 c 0.084,-0.057 0.164,-0.112 0.249,-0.169 0.702,-0.521 1.452,-1.048 2.177,-1.658 0.367,-0.297 0.733,-0.604 1.103,-0.917 0.362,-0.327 0.728,-0.66 1.098,-0.992 0.731,-0.671 1.43,-1.395 2.122,-2.122 0.666,-0.755 1.347,-1.495 1.937,-2.29 0.611,-0.776 1.173,-1.572 1.668,-2.371 0.517,-0.787 0.936,-1.595 1.319,-2.365 0.392,-0.77 0.667,-1.532 0.916,-2.24 0.136,-0.359 0.24,-0.709 0.317,-1.047 0.079,-0.314 0.148,-0.616 0.2,-0.904 0.003,-0.012 0.005,-0.025 0.008,-0.039 0.136,-0.587 0.207,-1.101 0.211,-1.536 0.041,-0.866 0.065,-1.362 0.065,-1.362 0,0 -0.059,0.491 -0.164,1.35 -0.033,0.431 -0.146,0.94 -0.322,1.515 -0.074,0.286 -0.167,0.586 -0.269,0.9 -0.099,0.323 -0.224,0.655 -0.381,0.994 -0.294,0.673 -0.614,1.396 -1.051,2.117 -0.429,0.723 -0.89,1.476 -1.448,2.204 -0.537,0.738 -1.137,1.472 -1.785,2.18 -0.625,0.727 -1.34,1.398 -2.034,2.079 -0.723,0.657 -1.448,1.305 -2.201,1.901 -0.386,0.299 -0.766,0.599 -1.143,0.891 -0.374,0.271 -0.742,0.538 -1.11,0.793 -0.753,0.545 -1.524,1.005 -2.237,1.459 -0.477,0.27 -0.927,0.529 -1.367,0.771 l -8.449,-3.415 c 0.678,-0.496 1.397,-1.009 2.1,-1.591 0.355,-0.283 0.708,-0.579 1.065,-0.88 0.353,-0.315 0.707,-0.634 1.068,-0.954 0.703,-0.651 1.394,-1.334 2.061,-2.04 0.652,-0.72 1.311,-1.432 1.89,-2.194 0.603,-0.739 1.144,-1.511 1.64,-2.27 0.503,-0.756 0.925,-1.528 1.306,-2.266 0.376,-0.744 0.681,-1.464 0.918,-2.152 0.133,-0.348 0.241,-0.686 0.325,-1.011 0.082,-0.302 0.153,-0.591 0.203,-0.869 0.002,-0.014 0.005,-0.026 0.008,-0.039 0.128,-0.565 0.22,-1.057 0.219,-1.477 0.042,-0.837 0.066,-1.315 0.066,-1.315 0,0 -0.06,0.473 -0.164,1.302 -0.029,0.418 -0.164,0.904 -0.331,1.458 -0.071,0.277 -0.165,0.563 -0.271,0.862 -0.106,0.308 -0.235,0.627 -0.389,0.956 -0.281,0.652 -0.631,1.33 -1.05,2.025 -0.426,0.691 -0.889,1.406 -1.433,2.104 -0.537,0.7 -1.117,1.407 -1.756,2.08 -0.614,0.693 -1.306,1.337 -1.988,1.984 -0.698,0.635 -1.414,1.244 -2.14,1.821 -0.377,0.286 -0.749,0.574 -1.118,0.856 -0.359,0.259 -0.714,0.513 -1.068,0.756 -0.737,0.521 -1.485,0.971 -2.183,1.404 -0.37,0.21 -0.724,0.411 -1.071,0.603 l -8.489,-3.431 c 0.584,-0.421 1.186,-0.861 1.784,-1.349 0.345,-0.269 0.685,-0.555 1.028,-0.846 0.343,-0.301 0.688,-0.608 1.039,-0.914 0.674,-0.632 1.356,-1.273 1.999,-1.958 0.638,-0.683 1.275,-1.371 1.843,-2.097 0.594,-0.703 1.115,-1.451 1.611,-2.169 0.491,-0.728 0.915,-1.461 1.295,-2.168 0.359,-0.721 0.692,-1.396 0.918,-2.063 0.129,-0.339 0.243,-0.665 0.334,-0.977 0.086,-0.289 0.159,-0.567 0.206,-0.835 0.002,-0.013 0.004,-0.025 0.007,-0.037 0.121,-0.545 0.233,-1.013 0.229,-1.417 0.042,-0.809 0.066,-1.27 0.066,-1.27 0,0 -0.06,0.457 -0.165,1.256 -0.025,0.402 -0.181,0.867 -0.339,1.401 -0.069,0.265 -0.163,0.536 -0.273,0.821 -0.112,0.297 -0.246,0.602 -0.396,0.919 -0.269,0.63 -0.648,1.264 -1.048,1.934 -0.424,0.658 -0.89,1.337 -1.421,2.005 -0.537,0.66 -1.094,1.342 -1.726,1.979 -0.603,0.659 -1.273,1.278 -1.942,1.89 -0.672,0.613 -1.38,1.181 -2.078,1.739 -0.37,0.274 -0.734,0.552 -1.094,0.822 -0.344,0.247 -0.684,0.488 -1.027,0.717 -0.72,0.501 -1.446,0.939 -2.128,1.352 -0.265,0.15 -0.521,0.294 -0.775,0.435 l -8.527,-3.448 c 0.483,-0.348 0.974,-0.711 1.466,-1.107 0.333,-0.257 0.661,-0.53 0.991,-0.811 0.333,-0.288 0.668,-0.583 1.008,-0.875 0.647,-0.614 1.321,-1.212 1.937,-1.875 0.626,-0.649 1.241,-1.31 1.798,-2.002 0.586,-0.666 1.086,-1.387 1.583,-2.068 0.477,-0.697 0.905,-1.395 1.282,-2.068 0.343,-0.698 0.705,-1.328 0.919,-1.974 0.126,-0.33 0.246,-0.643 0.343,-0.945 0.053,-0.163 0.084,-0.318 0.124,-0.475 3.217,-4.887 5.749,-10.51 7.331,-16.589 1.799,-6.914 2.091,-13.534 0.992,-19.326 -1.822,0.653 -3.683,1.051 -5.632,1.106 0.926,4.93 0.65,10.683 -0.934,16.77 -3.813,14.651 -13.587,26.293 -24.902,29.661 l 0.009,0.032 -1.282,-0.128 c 1.101,-0.668 2.309,-1.499 3.535,-2.469 0.652,-0.494 1.278,-1.063 1.934,-1.611 0.617,-0.596 1.282,-1.154 1.874,-1.792 0.613,-0.617 1.205,-1.25 1.751,-1.909 0.577,-0.628 1.058,-1.325 1.555,-1.965 0.463,-0.668 0.893,-1.329 1.269,-1.97 0.327,-0.673 0.718,-1.26 0.921,-1.885 0.232,-0.607 0.474,-1.15 0.563,-1.676 0.104,-0.516 0.265,-0.949 0.252,-1.333 0.043,-0.749 0.067,-1.176 0.067,-1.176 0,0 -0.061,0.422 -0.165,1.162 -0.017,0.374 -0.215,0.794 -0.358,1.287 -0.127,0.501 -0.412,1.015 -0.686,1.586 -0.243,0.583 -0.68,1.132 -1.046,1.752 -0.418,0.591 -0.89,1.196 -1.392,1.804 -0.537,0.583 -1.054,1.213 -1.667,1.778 -0.581,0.591 -1.207,1.157 -1.85,1.702 -0.621,0.568 -1.315,1.055 -1.955,1.577 -0.677,0.476 -1.324,0.972 -1.989,1.392 -1.31,0.869 -2.585,1.591 -3.696,2.134 -0.549,0.292 -1.075,0.477 -1.526,0.685 -0.445,0.172 -0.807,0.276 -1.112,0.39 -0.171,0.048 -0.334,0.086 -0.478,0.118 l -4.099,-0.41 c 0.004,-0.002 0.008,-0.003 0.012,-0.006 0.038,-0.024 0.075,-0.048 0.114,-0.072 0.287,-0.173 0.582,-0.355 0.884,-0.547 0.327,-0.214 0.66,-0.44 1,-0.675 0.725,-0.494 1.457,-1.06 2.205,-1.655 0.359,-0.279 0.707,-0.583 1.059,-0.89 0.358,-0.31 0.716,-0.628 1.074,-0.95 0.34,-0.336 0.692,-0.665 1.04,-1 0.274,-0.253 0.761,-0.775 1.015,-1.05 0.339,-0.351 0.663,-0.714 0.983,-1.08 0.315,-0.364 0.63,-0.727 0.922,-1.103 0.31,-0.367 0.6,-0.747 0.879,-1.129 0.273,-0.375 0.532,-0.754 0.796,-1.117 0.507,-0.755 0.959,-1.511 1.37,-2.233 0.355,-0.757 0.771,-1.426 1.001,-2.122 0.256,-0.681 0.52,-1.291 0.631,-1.875 0.127,-0.576 0.304,-1.06 0.311,-1.487 0.08,-0.835 0.125,-1.312 0.125,-1.312 0,0 -0.081,0.472 -0.222,1.296 -0.036,0.417 -0.252,0.888 -0.418,1.441 -0.148,0.561 -0.456,1.144 -0.755,1.788 -0.271,0.657 -0.733,1.289 -1.13,1.994 -0.455,0.675 -0.948,1.377 -1.495,2.074 -0.296,0.345 -0.584,0.708 -0.888,1.064 -0.289,0.336 -0.587,0.672 -0.904,0.994 -0.323,0.36 -0.671,0.702 -1.018,1.044 -0.323,0.318 -0.649,0.633 -0.988,0.936 -0.283,0.258 -0.809,0.748 -1.111,0.982 -0.336,0.275 -0.671,0.546 -0.996,0.822 -0.047,0.036 -0.095,0.073 -0.142,0.109 -0.387,0.299 -0.773,0.593 -1.158,0.878 -0.286,0.21 -0.568,0.416 -0.854,0.61 -0.104,0.072 -0.208,0.144 -0.312,0.214 -0.771,0.515 -1.519,0.998 -2.247,1.41 -0.372,0.214 -0.733,0.414 -1.082,0.603 -0.135,0.069 -0.267,0.136 -0.398,0.202 -0.22,0.118 -0.437,0.223 -0.646,0.32 -0.363,0.171 -0.709,0.313 -1.026,0.46 -0.303,0.122 -0.574,0.218 -0.819,0.305 -0.142,0.05 -0.276,0.099 -0.4,0.149 -0.136,0.041 -0.268,0.079 -0.39,0.112 -0.111,0.029 -0.19,0.048 -0.285,0.072 l -4.058,-0.406 c 0.103,-0.059 0.202,-0.109 0.304,-0.173 0.041,-0.026 0.083,-0.052 0.124,-0.078 0.316,-0.19 0.642,-0.391 0.977,-0.6 0.361,-0.242 0.731,-0.495 1.108,-0.76 0.795,-0.539 1.587,-1.175 2.405,-1.828 0.395,-0.315 0.774,-0.659 1.162,-1.002 0.392,-0.347 0.785,-0.701 1.171,-1.068 0.373,-0.376 0.756,-0.747 1.136,-1.124 0.228,-0.211 0.888,-0.954 1.099,-1.183 0.37,-0.394 0.717,-0.806 1.061,-1.217 0.34,-0.411 0.685,-0.815 0.996,-1.241 0.33,-0.415 0.642,-0.843 0.944,-1.268 0.296,-0.419 0.571,-0.848 0.853,-1.257 0.551,-0.843 1.023,-1.694 1.472,-2.497 0.383,-0.841 0.823,-1.593 1.079,-2.361 0.281,-0.755 0.568,-1.429 0.7,-2.074 0.15,-0.635 0.344,-1.171 0.371,-1.64 0.116,-0.922 0.183,-1.447 0.183,-1.447 0,0 -0.103,0.52 -0.281,1.429 -0.056,0.46 -0.288,0.982 -0.475,1.596 -0.172,0.62 -0.503,1.271 -0.826,1.99 -0.299,0.731 -0.786,1.445 -1.212,2.236 -0.492,0.758 -1.008,1.556 -1.6,2.342 -0.313,0.391 -0.617,0.801 -0.942,1.201 -0.315,0.383 -0.637,0.766 -0.976,1.141 -0.341,0.405 -0.718,0.788 -1.087,1.175 -0.35,0.366 -0.701,0.731 -1.073,1.079 -0.236,0.215 -0.935,0.914 -1.188,1.109 -0.361,0.309 -0.721,0.614 -1.072,0.924 -0.052,0.041 -0.101,0.082 -0.152,0.122 -0.412,0.343 -0.829,0.671 -1.246,0.988 -0.309,0.236 -0.613,0.47 -0.922,0.69 -0.11,0.081 -0.22,0.159 -0.332,0.237 -0.838,0.573 -1.642,1.126 -2.44,1.584 -0.402,0.238 -0.794,0.464 -1.171,0.678 -0.149,0.077 -0.294,0.153 -0.438,0.226 -0.238,0.128 -0.471,0.244 -0.698,0.354 -0.393,0.195 -0.772,0.359 -1.121,0.52 -0.323,0.135 -0.617,0.243 -0.885,0.346 -0.155,0.058 -0.301,0.114 -0.441,0.171 -0.144,0.049 -0.283,0.093 -0.414,0.134 -0.166,0.045 -0.301,0.082 -0.435,0.119 l -4.034,-0.402 c 0.196,-0.112 0.392,-0.215 0.591,-0.341 0.045,-0.027 0.09,-0.055 0.135,-0.084 0.346,-0.208 0.703,-0.426 1.069,-0.654 0.394,-0.269 0.8,-0.551 1.214,-0.843 0.868,-0.586 1.718,-1.29 2.606,-2.003 0.431,-0.348 0.842,-0.733 1.266,-1.113 0.427,-0.383 0.854,-0.774 1.268,-1.186 0.405,-0.417 0.819,-0.83 1.232,-1.247 0.182,-0.169 1.015,-1.133 1.184,-1.317 0.4,-0.435 0.769,-0.896 1.138,-1.353 0.363,-0.459 0.74,-0.906 1.071,-1.381 0.348,-0.464 0.683,-0.936 1.007,-1.405 0.319,-0.466 0.61,-0.943 0.911,-1.4 0.596,-0.928 1.088,-1.875 1.572,-2.761 0.412,-0.923 0.877,-1.757 1.16,-2.597 0.303,-0.828 0.614,-1.571 0.77,-2.274 0.17,-0.693 0.382,-1.282 0.428,-1.794 0.153,-1.006 0.241,-1.581 0.241,-1.581 0,0 -0.123,0.568 -0.337,1.563 -0.077,0.502 -0.326,1.076 -0.536,1.75 -0.193,0.679 -0.548,1.398 -0.896,2.192 -0.327,0.804 -0.837,1.602 -1.294,2.478 -0.529,0.842 -1.067,1.736 -1.705,2.609 -0.33,0.438 -0.649,0.894 -0.996,1.339 -0.339,0.43 -0.686,0.86 -1.047,1.285 -0.358,0.453 -0.764,0.875 -1.155,1.31 -0.378,0.413 -0.754,0.83 -1.159,1.221 -0.189,0.173 -1.063,1.079 -1.265,1.236 -0.386,0.343 -0.772,0.682 -1.149,1.025 -0.053,0.047 -0.107,0.092 -0.161,0.138 -0.436,0.384 -0.885,0.746 -1.333,1.097 -0.333,0.261 -0.658,0.524 -0.99,0.77 -0.117,0.088 -0.234,0.175 -0.351,0.259 -0.906,0.632 -1.767,1.254 -2.634,1.758 -0.433,0.262 -0.855,0.513 -1.263,0.753 -0.161,0.084 -0.319,0.168 -0.477,0.25 -0.254,0.138 -0.504,0.265 -0.748,0.386 -0.425,0.222 -0.835,0.407 -1.217,0.583 -0.343,0.148 -0.659,0.269 -0.95,0.384 -0.169,0.067 -0.329,0.131 -0.481,0.195 -0.152,0.055 -0.299,0.107 -0.438,0.155 -0.215,0.063 -0.405,0.118 -0.574,0.17 l -4.022,-0.402 c 0.29,-0.159 0.582,-0.319 0.876,-0.508 0.049,-0.029 0.097,-0.059 0.146,-0.089 0.376,-0.227 0.763,-0.464 1.161,-0.709 0.43,-0.297 0.871,-0.607 1.323,-0.925 0.94,-0.632 1.849,-1.406 2.806,-2.178 0.467,-0.383 0.909,-0.809 1.369,-1.225 0.461,-0.419 0.923,-0.847 1.364,-1.303 0.439,-0.458 0.884,-0.914 1.329,-1.373 0.137,-0.126 1.142,-1.312 1.269,-1.449 0.43,-0.478 0.821,-0.988 1.216,-1.491 0.387,-0.506 0.794,-0.994 1.144,-1.518 0.368,-0.513 0.724,-1.031 1.073,-1.543 0.34,-0.513 0.647,-1.038 0.967,-1.541 0.64,-1.016 1.154,-2.059 1.673,-3.026 0.441,-1.008 0.929,-1.924 1.24,-2.834 0.327,-0.901 0.661,-1.713 0.838,-2.472 0.193,-0.754 0.421,-1.394 0.487,-1.949 0.19,-1.092 0.299,-1.716 0.299,-1.716 0,0 -0.144,0.616 -0.395,1.696 -0.096,0.544 -0.361,1.171 -0.594,1.904 -0.217,0.74 -0.594,1.527 -0.966,2.396 -0.354,0.877 -0.891,1.758 -1.377,2.72 -0.567,0.922 -1.126,1.915 -1.81,2.876 -0.347,0.483 -0.681,0.986 -1.049,1.475 -0.364,0.477 -0.735,0.955 -1.118,1.432 -0.377,0.5 -0.812,0.963 -1.224,1.441 -0.406,0.463 -0.807,0.931 -1.245,1.366 -0.143,0.13 -1.189,1.243 -1.341,1.362 -0.412,0.379 -0.823,0.752 -1.227,1.127 -0.056,0.05 -0.113,0.1 -0.17,0.151 -0.46,0.426 -0.941,0.822 -1.42,1.208 -0.358,0.286 -0.704,0.576 -1.058,0.85 -0.123,0.095 -0.247,0.19 -0.371,0.281 -0.973,0.69 -1.89,1.382 -2.827,1.931 -0.464,0.288 -0.917,0.564 -1.354,0.829 -0.173,0.092 -0.346,0.184 -0.516,0.274 -0.272,0.147 -0.539,0.287 -0.799,0.42 -0.457,0.246 -0.898,0.452 -1.312,0.644 -0.363,0.16 -0.702,0.294 -1.016,0.423 -0.182,0.075 -0.357,0.148 -0.522,0.218 -0.16,0.063 -0.316,0.122 -0.462,0.177 -0.251,0.078 -0.48,0.147 -0.68,0.212 -0.008,0.003 -0.015,0.005 -0.024,0.008 l -4.015,-0.401 c 0.381,-0.205 0.77,-0.425 1.159,-0.676 0.052,-0.031 0.104,-0.063 0.157,-0.094 0.404,-0.246 0.823,-0.501 1.253,-0.765 0.463,-0.324 0.941,-0.66 1.431,-1.008 1.01,-0.678 1.978,-1.52 3.006,-2.35 0.503,-0.419 0.975,-0.885 1.471,-1.338 0.497,-0.455 0.994,-0.92 1.463,-1.422 0.47,-0.496 0.947,-0.994 1.424,-1.496 0.091,-0.084 1.269,-1.49 1.353,-1.582 0.461,-0.52 0.874,-1.078 1.293,-1.627 0.411,-0.554 0.851,-1.085 1.22,-1.658 0.387,-0.561 0.765,-1.123 1.136,-1.681 0.363,-0.559 0.687,-1.133 1.025,-1.684 0.684,-1.101 1.219,-2.239 1.774,-3.287 0.47,-1.092 0.982,-2.091 1.32,-3.072 0.351,-0.976 0.707,-1.853 0.906,-2.673 0.216,-0.812 0.461,-1.503 0.547,-2.101 0.227,-1.179 0.356,-1.852 0.356,-1.852 0,0 -0.165,0.666 -0.453,1.829 -0.115,0.588 -0.397,1.267 -0.652,2.06 -0.239,0.798 -0.64,1.653 -1.036,2.597 -0.383,0.95 -0.944,1.914 -1.459,2.963 -0.604,1.006 -1.186,2.095 -1.915,3.144 -0.366,0.528 -0.714,1.079 -1.103,1.612 -0.389,0.523 -0.785,1.05 -1.19,1.577 -0.394,0.547 -0.858,1.05 -1.292,1.574 -0.434,0.511 -0.859,1.031 -1.332,1.51 -0.094,0.086 -1.316,1.408 -1.417,1.487 -0.437,0.412 -0.872,0.821 -1.303,1.229 -0.06,0.056 -0.119,0.111 -0.179,0.166 -0.486,0.468 -0.999,0.898 -1.508,1.318 -0.382,0.312 -0.75,0.63 -1.126,0.929 -0.13,0.105 -0.26,0.205 -0.392,0.304 -1.039,0.749 -2.013,1.509 -3.018,2.105 -0.496,0.313 -0.979,0.613 -1.446,0.904 -0.187,0.1 -0.372,0.2 -0.554,0.297 -0.29,0.158 -0.575,0.308 -0.852,0.453 -0.487,0.273 -0.96,0.499 -1.408,0.707 -0.382,0.171 -0.743,0.321 -1.08,0.462 -0.195,0.083 -0.383,0.164 -0.563,0.243 -0.168,0.068 -0.331,0.134 -0.486,0.196 -0.267,0.087 -0.514,0.167 -0.733,0.239 -0.034,0.011 -0.064,0.022 -0.096,0.032 l -4.03,-0.402 c 0.478,-0.252 0.965,-0.523 1.459,-0.841 0.056,-0.034 0.111,-0.067 0.167,-0.101 0.435,-0.264 0.883,-0.537 1.346,-0.819 0.497,-0.351 1.01,-0.716 1.537,-1.091 1.083,-0.723 2.109,-1.635 3.207,-2.525 0.539,-0.453 1.043,-0.96 1.575,-1.449 0.53,-0.492 1.063,-0.993 1.559,-1.539 0.504,-0.538 1.011,-1.078 1.521,-1.62 0.046,-0.042 1.395,-1.67 1.437,-1.716 0.492,-0.562 0.926,-1.17 1.372,-1.765 0.434,-0.6 0.904,-1.173 1.293,-1.796 0.407,-0.609 0.807,-1.217 1.201,-1.819 0.385,-0.604 0.726,-1.226 1.082,-1.824 0.729,-1.189 1.283,-2.423 1.875,-3.551 0.499,-1.176 1.036,-2.258 1.399,-3.31 0.374,-1.049 0.755,-1.994 0.976,-2.873 0.237,-0.871 0.499,-1.614 0.605,-2.253 0.264,-1.266 0.415,-1.989 0.415,-1.989 0,0 -0.186,0.715 -0.511,1.963 -0.136,0.631 -0.434,1.361 -0.712,2.214 -0.261,0.858 -0.685,1.782 -1.106,2.8 -0.41,1.024 -0.995,2.071 -1.542,3.206 -0.641,1.088 -1.243,2.273 -2.019,3.412 -0.381,0.573 -0.747,1.17 -1.156,1.748 -0.415,0.569 -0.835,1.146 -1.262,1.723 -0.412,0.594 -0.905,1.136 -1.361,1.706 -0.461,0.558 -0.912,1.13 -1.418,1.654 -0.047,0.043 -1.442,1.573 -1.493,1.612 -0.462,0.447 -0.923,0.89 -1.379,1.331 l -0.189,0.182 c -0.51,0.51 -1.054,0.974 -1.595,1.427 -0.406,0.337 -0.796,0.683 -1.194,1.011 -0.137,0.11 -0.273,0.219 -0.413,0.324 -1.106,0.807 -2.135,1.638 -3.21,2.279 -0.528,0.337 -1.041,0.664 -1.537,0.979 -0.2,0.109 -0.399,0.216 -0.594,0.322 -0.307,0.167 -0.608,0.329 -0.902,0.485 -0.519,0.298 -1.024,0.546 -1.503,0.769 -0.403,0.184 -0.786,0.346 -1.146,0.501 -0.209,0.091 -0.411,0.18 -0.604,0.265 -0.176,0.076 -0.347,0.149 -0.51,0.218 -0.283,0.096 -0.546,0.185 -0.786,0.268 -0.056,0.018 -0.11,0.037 -0.163,0.055 l -4.054,-0.404 c 0.575,-0.298 1.165,-0.62 1.763,-1.007 0.518,-0.314 1.058,-0.642 1.617,-0.98 0.53,-0.379 1.079,-0.771 1.644,-1.174 1.154,-0.77 2.239,-1.751 3.407,-2.699 0.574,-0.488 1.11,-1.036 1.678,-1.562 0.565,-0.527 1.133,-1.066 1.657,-1.656 0.535,-0.578 1.074,-1.16 1.616,-1.744 l 1.522,-1.85 c 0.523,-0.603 0.979,-1.26 1.449,-1.9 0.459,-0.65 0.96,-1.263 1.368,-1.935 0.426,-0.658 0.848,-1.311 1.265,-1.957 0.408,-0.65 0.764,-1.322 1.14,-1.967 0.772,-1.275 1.347,-2.603 1.975,-3.814 0.527,-1.26 1.088,-2.423 1.479,-3.548 0.398,-1.121 0.801,-2.134 1.045,-3.071 0.259,-0.93 0.538,-1.726 0.664,-2.408 0.3,-1.351 0.472,-2.124 0.472,-2.124 0,0 -0.207,0.763 -0.568,2.098 -0.156,0.674 -0.471,1.455 -0.771,2.367 -0.283,0.918 -0.73,1.91 -1.175,3.003 -0.439,1.097 -1.05,2.228 -1.625,3.448 -0.678,1.171 -1.303,2.454 -2.124,3.679 -0.4,0.619 -0.78,1.264 -1.211,1.886 -0.439,0.616 -0.884,1.239 -1.332,1.868 -0.43,0.642 -0.952,1.223 -1.43,1.838 -0.489,0.608 -0.964,1.23 -1.504,1.799 l -1.569,1.738 c -0.554,0.546 -1.107,1.089 -1.655,1.628 -0.534,0.552 -1.11,1.051 -1.683,1.537 -0.575,0.485 -1.116,0.993 -1.694,1.439 -1.173,0.865 -2.259,1.764 -3.403,2.452 -0.558,0.362 -1.102,0.714 -1.627,1.054 -0.549,0.298 -1.078,0.587 -1.587,0.865 -1.006,0.59 -1.965,1 -2.81,1.37 -0.421,0.188 -0.815,0.364 -1.178,0.527 -0.389,0.137 -0.745,0.262 -1.068,0.375 L 88.006,333.17 c 0,0 19.484,-3.247 27.262,-17.855 4.174,-7.838 6.296,-15.332 7.037,-22.391 -6.014,22.846 -24.397,38.49 -43.747,35.936 -20.074,-2.648 -27.654,-22.759 -22.659,-48.713 0.321,-1.665 -9.97,-3.401 -9.743,-5.123 3.55,-26.903 31.242,-41.35 46.65,-39.095 0.481,0.071 0.952,0.159 1.425,0.246 4.605,0.843 8.804,2.453 12.511,4.74 -0.033,-0.065 -0.072,-0.137 -0.104,-0.201 0,0 42.2,22.548 79.493,43.948 0.137,0.165 0.262,0.342 0.392,0.513 1.692,-0.623 2.915,-2.027 4.005,-4.235 1.066,-2.157 2.01,-5.074 3.159,-8.77 2.876,-9.262 4.94,-20.467 15.102,-29.282 7.137,-6.193 18.265,-11.207 36.502,-13.534 l 5.765,4.436 c -17.691,2.257 -28.761,7.554 -36.018,14.048 -9.066,8.112 -12.177,18.096 -14.751,26.381 -1.32,4.252 -2.61,8.381 -4.606,11.638 3.437,-1.711 7.082,-4.682 11.421,-8.227 6.487,-5.3 13.643,-11.762 24.132,-16.963 10.285,-5.098 23.773,-8.981 42.998,-9.354 l 4.099,6.118 c -17.29,0.337 -30.328,3.747 -40.633,8.356 -11.417,5.106 -19.478,11.685 -26.223,17.195 m -35.826,58.727 c 0.376,-0.232 0.755,-0.474 1.138,-0.733 0.329,-0.214 0.655,-0.444 0.984,-0.679 0.354,-0.259 0.709,-0.525 1.071,-0.786 0.669,-0.54 1.37,-1.069 2.016,-1.659 0.657,-0.58 1.305,-1.171 1.896,-1.796 0.622,-0.6 1.16,-1.256 1.698,-1.878 0.515,-0.638 0.984,-1.28 1.404,-1.905 0.385,-0.645 0.793,-1.237 1.048,-1.843 0.055,-0.115 0.099,-0.22 0.152,-0.331 -3.239,4.69 -7.113,8.661 -11.407,11.61 m 333.834,33.145 -35.494,-7.981 c -15.185,-3.447 -30.406,-6.731 -45.61,-10.095 l -45.622,-10.038 -0.283,-0.061 -0.279,0.08 -45.184,13.059 c -15.057,4.371 -30.136,8.662 -45.168,13.117 l -45.124,13.267 c -15.019,4.503 -30.059,8.931 -45.058,13.5 15.143,-4.069 30.245,-8.281 45.368,-12.418 l 45.301,-12.65 c 15.109,-4.186 30.172,-8.533 45.258,-12.802 l 44.963,-12.779 45.383,9.771 c 15.225,3.261 30.434,6.601 45.679,9.777 l 32.573,6.855 c 1.162,-0.211 2.26,-0.411 3.297,-0.602 m -31.545,-64.688 c 1.246,0.547 1.911,0.839 1.911,0.839 0,0 -0.646,-0.33 -1.856,-0.951 -1.221,-0.6 -2.968,-1.583 -5.279,-2.643 -2.331,-1.013 -5.109,-2.382 -8.429,-3.636 -3.275,-1.364 -7.055,-2.691 -11.212,-4.037 -2.093,-0.62 -4.265,-1.302 -6.533,-1.942 -2.281,-0.585 -4.629,-1.238 -7.065,-1.82 -4.878,-1.134 -10.05,-2.241 -15.458,-3.036 -1.351,-0.204 -2.714,-0.409 -4.087,-0.614 -1.373,-0.195 -2.764,-0.341 -4.158,-0.515 -2.791,-0.37 -5.625,-0.614 -8.484,-0.874 -2.856,-0.276 -5.746,-0.401 -8.641,-0.605 -2.902,-0.09 -5.813,-0.279 -8.729,-0.287 -5.829,-0.089 -11.657,0.097 -17.386,0.36 -5.726,0.344 -11.358,0.753 -16.781,1.409 -2.717,0.279 -5.376,0.672 -7.978,1.04 -2.591,0.449 -5.137,0.813 -7.592,1.31 -4.928,0.885 -9.538,1.976 -13.777,3.026 -4.227,1.108 -8.07,2.249 -11.41,3.46 -1.683,0.559 -3.216,1.215 -4.654,1.749 -1.408,0.616 -2.716,1.146 -3.863,1.702 -2.306,1.085 -4.038,2.114 -5.184,2.842 -1.121,0.771 -1.719,1.182 -1.719,1.182 0,0 0.621,-0.374 1.787,-1.078 1.187,-0.67 2.966,-1.55 5.298,-2.539 1.161,-0.501 2.485,-0.97 3.907,-1.517 1.454,-0.468 2.997,-1.051 4.696,-1.531 1.686,-0.513 3.488,-1.033 5.406,-1.515 1.905,-0.527 3.936,-0.984 6.041,-1.5 4.238,-0.928 8.841,-1.886 13.758,-2.633 4.908,-0.791 10.111,-1.44 15.501,-2.015 5.389,-0.603 10.984,-0.958 16.667,-1.248 5.688,-0.211 11.471,-0.344 17.25,-0.203 2.89,-0.008 5.778,0.146 8.656,0.212 2.873,0.176 5.741,0.274 8.575,0.523 2.836,0.232 5.651,0.448 8.418,0.789 1.385,0.16 2.765,0.293 4.128,0.473 1.362,0.192 2.716,0.383 4.057,0.572 5.362,0.781 10.517,1.708 15.387,2.7 2.431,0.511 4.776,1.096 7.057,1.614 2.267,0.572 4.441,1.192 6.537,1.75 4.153,1.25 7.967,2.396 11.284,3.599 3.358,1.1 6.178,2.337 8.549,3.243 2.345,0.967 4.153,1.81 5.405,2.345 m 50.955,-3.138 c 0.566,0.02 1.098,0.14 1.614,0.191 0.514,0.072 1.004,0.126 1.458,0.174 0.895,0.177 1.641,0.326 2.164,0.431 0.528,0.1 0.84,0.144 0.84,0.144 0,0 -0.274,-0.139 -0.768,-0.357 -0.248,-0.107 -0.551,-0.237 -0.897,-0.386 -0.35,-0.146 -0.74,-0.336 -1.184,-0.475 -0.169,-0.047 -0.368,-0.095 -0.548,-0.143 -0.026,0.047 -0.051,0.097 -0.077,0.144 l -0.48,-0.287 c -0.12,-0.03 -0.225,-0.062 -0.351,-0.091 -0.504,-0.106 -1.028,-0.284 -1.589,-0.34 -0.054,0.134 -0.098,0.28 -0.153,0.411 l -1.449,-0.595 c -0.085,-0.009 -0.163,-0.022 -0.248,-0.029 -0.282,-0.038 -0.566,-0.052 -0.852,-0.06 -0.017,0.084 -0.029,0.174 -0.046,0.258 l -1.312,-0.262 c -0.507,0.008 -1.013,0.005 -1.51,0.056 -0.612,0.062 -1.212,0.155 -1.791,0.228 -0.583,0.046 -1.128,0.244 -1.65,0.36 -0.521,0.14 -1.01,0.236 -1.454,0.443 -0.446,0.175 -0.842,0.352 -1.189,0.508 -0.356,0.135 -0.599,0.363 -0.833,0.496 -0.449,0.296 -0.698,0.481 -0.698,0.481 0,0 0.296,-0.095 0.802,-0.285 0.255,-0.08 0.547,-0.255 0.917,-0.311 0.365,-0.074 0.77,-0.154 1.197,-0.26 0.418,-0.125 0.924,-0.147 1.429,-0.232 0.516,-0.058 1.043,-0.179 1.611,-0.197 0.562,-0.04 1.143,-0.067 1.73,-0.122 0.589,-0.048 1.192,-0.011 1.791,-0.02 0.6,-0.01 1.202,-0.039 1.79,0.03 0.589,0.049 1.172,0.065 1.736,0.097 m -1.573,63.667 57.929,13.456 v 8.64 L 384.24,438.292 190.718,402.582 v -9.791 l 102.024,-29.809 c -0.614,-1.216 -1.296,-2.662 -2.002,-4.326 0.275,-0.128 0.545,-0.255 0.827,-0.382 1.896,-0.876 3.955,-1.728 6.036,-2.536 1.049,-0.373 2.092,-0.783 3.136,-1.122 1.047,-0.325 2.069,-0.704 3.081,-0.966 1.011,-0.268 1.981,-0.589 2.922,-0.78 0.938,-0.205 1.823,-0.441 2.652,-0.584 0.83,-0.143 1.59,-0.272 2.266,-0.389 0.676,-0.113 1.272,-0.144 1.762,-0.205 0.983,-0.103 1.545,-0.162 1.545,-0.162 0,0 -0.565,-0.012 -1.553,-0.036 -0.494,-0.002 -1.099,-0.047 -1.789,-0.02 -0.691,0.029 -1.472,0.062 -2.323,0.097 -0.853,0.037 -1.767,0.16 -2.744,0.246 -0.98,0.073 -1.992,0.269 -3.054,0.409 -1.065,0.136 -2.139,0.384 -3.248,0.58 -1.107,0.209 -2.213,0.486 -3.332,0.73 -2.218,0.549 -4.43,1.149 -6.478,1.795 -0.312,0.095 -0.613,0.192 -0.919,0.289 -0.452,-1.203 -0.9,-2.49 -1.335,-3.851 0.515,-0.256 1.039,-0.514 1.576,-0.775 1.13,-0.505 2.284,-1.076 3.489,-1.572 1.202,-0.507 2.421,-1.035 3.667,-1.491 l 1.859,-0.71 c 0.627,-0.214 1.25,-0.426 1.869,-0.637 1.235,-0.441 2.47,-0.806 3.67,-1.152 1.193,-0.375 2.365,-0.665 3.48,-0.932 1.112,-0.285 2.168,-0.537 3.155,-0.708 0.986,-0.19 1.889,-0.363 2.691,-0.517 0.808,-0.111 1.513,-0.209 2.093,-0.289 1.165,-0.16 1.83,-0.252 1.83,-0.252 0,0 -0.671,0.02 -1.845,0.055 -0.589,0.018 -1.305,0.039 -2.125,0.063 -0.818,0.068 -1.742,0.144 -2.748,0.228 -1.013,0.065 -2.1,0.204 -3.249,0.37 -1.153,0.149 -2.37,0.315 -3.614,0.562 -1.25,0.22 -2.544,0.455 -3.841,0.767 -0.651,0.147 -1.309,0.294 -1.969,0.443 l -1.966,0.517 c -1.32,0.329 -2.617,0.731 -3.9,1.117 -1.288,0.375 -2.525,0.829 -3.742,1.224 -0.452,0.162 -0.891,0.324 -1.329,0.484 -0.355,-1.29 -0.688,-2.634 -0.995,-4.032 0.549,-0.286 1.106,-0.573 1.687,-0.841 1.292,-0.632 2.637,-1.27 4.031,-1.861 1.379,-0.631 2.815,-1.183 4.249,-1.751 1.424,-0.597 2.899,-1.045 4.328,-1.568 1.434,-0.51 2.879,-0.899 4.264,-1.337 1.385,-0.438 2.756,-0.732 4.043,-1.08 1.286,-0.358 2.523,-0.591 3.663,-0.829 1.142,-0.225 2.184,-0.482 3.12,-0.619 0.936,-0.146 1.753,-0.273 2.425,-0.378 1.347,-0.21 2.117,-0.33 2.117,-0.33 0,0 -0.777,0.048 -2.138,0.132 -0.682,0.043 -1.509,0.095 -2.458,0.155 -0.952,0.05 -2.014,0.21 -3.181,0.329 -1.164,0.133 -2.433,0.253 -3.756,0.492 -1.325,0.229 -2.741,0.4 -4.177,0.711 -1.435,0.311 -2.939,0.571 -4.438,0.952 -1.494,0.394 -3.04,0.715 -4.542,1.185 -1.511,0.441 -3.03,0.871 -4.496,1.383 -1.48,0.473 -2.918,0.996 -4.304,1.523 -0.375,0.133 -0.729,0.281 -1.093,0.424 -0.244,-1.391 -0.455,-2.827 -0.632,-4.301 0.369,-0.189 0.728,-0.38 1.108,-0.564 1.456,-0.756 3.007,-1.438 4.579,-2.15 1.568,-0.724 3.215,-1.329 4.836,-2.008 1.643,-0.621 3.305,-1.196 4.934,-1.789 1.656,-0.517 3.285,-1.025 4.862,-1.517 1.599,-0.426 3.145,-0.837 4.611,-1.227 1.464,-0.408 2.881,-0.647 4.174,-0.947 1.298,-0.269 2.483,-0.566 3.551,-0.718 1.065,-0.178 1.993,-0.332 2.758,-0.46 1.531,-0.255 2.406,-0.401 2.406,-0.401 0,0 -0.883,0.074 -2.43,0.205 -0.775,0.065 -1.715,0.144 -2.794,0.236 -1.084,0.064 -2.288,0.264 -3.613,0.429 -1.318,0.194 -2.766,0.319 -4.268,0.609 -1.508,0.272 -3.099,0.561 -4.744,0.858 -1.634,0.368 -3.322,0.747 -5.037,1.133 -1.696,0.465 -3.431,0.911 -5.152,1.407 -1.702,0.555 -3.433,1.039 -5.094,1.646 -1.663,0.596 -3.31,1.167 -4.866,1.819 -0.052,0.02 -0.1,0.043 -0.152,0.063 -0.114,-1.517 -0.191,-3.067 -0.215,-4.654 1.559,-0.818 3.228,-1.525 4.893,-2.324 1.781,-0.757 3.6,-1.519 5.434,-2.247 1.857,-0.662 3.698,-1.386 5.547,-1.992 1.857,-0.578 3.676,-1.188 5.46,-1.707 1.795,-0.482 3.529,-0.949 5.174,-1.392 1.653,-0.417 3.235,-0.73 4.687,-1.063 1.455,-0.323 2.788,-0.631 3.985,-0.814 1.194,-0.208 2.235,-0.389 3.092,-0.539 1.716,-0.298 2.697,-0.469 2.697,-0.469 0,0 -0.99,0.099 -2.723,0.273 -0.868,0.087 -1.921,0.193 -3.129,0.315 -1.214,0.096 -2.568,0.307 -4.048,0.526 -1.479,0.228 -3.092,0.427 -4.782,0.726 -1.687,0.326 -3.467,0.668 -5.308,1.023 -1.834,0.392 -3.713,0.875 -5.636,1.324 -1.915,0.477 -3.831,1.073 -5.767,1.612 -1.916,0.602 -3.823,1.243 -5.698,1.886 -1.297,0.509 -2.585,0.983 -3.847,1.478 0.048,-1.661 0.15,-3.356 0.315,-5.082 1.051,-0.498 2.116,-0.994 3.197,-1.495 1.989,-0.812 3.978,-1.735 6.035,-2.484 2.063,-0.73 4.089,-1.589 6.158,-2.207 2.063,-0.637 4.07,-1.362 6.061,-1.89 1.991,-0.54 3.914,-1.066 5.738,-1.563 1.846,-0.417 3.592,-0.813 5.202,-1.178 1.611,-0.377 3.093,-0.697 4.42,-0.91 1.323,-0.237 2.477,-0.444 3.427,-0.615 1.902,-0.341 2.99,-0.535 2.99,-0.535 0,0 -1.098,0.123 -3.017,0.339 -0.961,0.108 -2.128,0.24 -3.467,0.39 -1.343,0.127 -2.846,0.352 -4.483,0.622 -1.64,0.261 -3.417,0.544 -5.297,0.842 -1.867,0.38 -3.835,0.781 -5.871,1.195 -2.042,0.402 -4.11,0.999 -6.238,1.507 -2.135,0.491 -4.238,1.221 -6.381,1.826 -2.139,0.626 -4.22,1.43 -6.304,2.127 -0.596,0.23 -1.182,0.458 -1.772,0.688 0.07,-0.491 0.13,-0.978 0.209,-1.474 -1.536,-1.536 -7.391,-2.56 -7.391,-2.56 l 10e-4,-0.303 0.095,-14.851 0.091,-0.06 c 1.539,-1.02 27.563,-17.856 75.302,-23.879 0.051,-0.005 0.102,-0.011 0.153,-0.018 6.213,-0.779 12.803,-1.368 19.745,-1.722 5.252,-0.268 10.685,-0.414 16.348,-0.379 72.333,0.445 107.177,24.718 108.713,30.094 -0.833,3.799 -1.441,10.871 -1.441,10.871 l -7.726,1.656 c -1.065,9.932 -0.995,30.43 -15.512,43.789 l 44.095,10.243 c 2.454,-20.159 3.457,-31.415 3.781,-37.667 -4.781,-2.587 -8.29,-7.104 -8.704,-17.53 1.965,-0.636 2.613,-3.888 0.03,-4.324 0.028,-0.821 -0.08,-2.05 0,-2.924 0.395,-0.345 0.816,-0.652 1.243,-0.944 -0.113,-0.18 -0.245,-0.389 -0.384,-0.615 -0.185,-0.299 -0.386,-0.631 -0.603,-1.019 -0.466,-0.935 -1.119,-2.07 -1.702,-3.38 -0.573,-1.314 -1.271,-2.781 -1.866,-4.435 -0.308,-0.823 -0.659,-1.673 -0.966,-2.567 -0.299,-0.899 -0.609,-1.826 -0.928,-2.78 -0.631,-1.911 -1.193,-3.954 -1.776,-6.066 -0.526,-2.127 -1.103,-4.319 -1.536,-6.578 -0.506,-2.247 -0.866,-4.558 -1.257,-6.864 -0.34,-2.315 -0.651,-4.638 -0.878,-6.933 -0.081,-0.966 -0.166,-1.923 -0.244,-2.874 -0.107,-1.312 -0.196,-2.611 -0.223,-3.891 -0.037,-1.1 -0.1,-2.182 -0.113,-3.243 0.012,-1.063 0.021,-2.102 0.032,-3.115 -0.025,-2.024 0.168,-3.94 0.271,-5.71 0.069,-1.772 0.366,-3.386 0.527,-4.823 0.098,-0.717 0.171,-1.391 0.271,-2.011 0.124,-0.616 0.239,-1.183 0.341,-1.695 0.415,-2.048 0.653,-3.22 0.653,-3.22 l 2.23,0.576 2.231,0.577 c 0,0 -0.253,1.083 -0.694,2.984 -0.111,0.474 -0.235,1.001 -0.369,1.574 -0.111,0.578 -0.198,1.212 -0.31,1.886 -0.191,1.353 -0.523,2.862 -0.636,4.552 -0.147,1.682 -0.391,3.5 -0.421,5.445 -0.039,0.972 -0.08,1.969 -0.121,2.989 -0.019,1.021 0.011,2.068 0.016,3.13 -0.022,2.126 0.138,4.323 0.257,6.558 0.153,2.232 0.388,4.498 0.651,6.758 0.313,2.257 0.596,4.519 1.025,6.723 0.356,2.217 0.856,4.368 1.305,6.458 0.507,2.074 0.996,4.086 1.553,5.96 0.283,0.938 0.557,1.849 0.822,2.729 0.271,0.879 0.587,1.708 0.861,2.515 0.53,1.625 1.157,3.044 1.67,4.326 0.366,0.894 0.743,1.652 1.075,2.336 -4.191,-15.322 -9.246,-44.957 -4.73,-67.5 0.114,-0.566 0.225,-1.135 0.351,-1.694 l 4.495,1.015 c -0.05,0.224 -0.092,0.455 -0.14,0.679 -4.161,19.406 -0.486,45.451 3.225,61.311 -0.097,-0.971 -0.196,-1.962 -0.3,-2.99 -1.627,-16.051 -4.033,-39.882 -1.189,-58.321 0.152,-0.984 0.308,-1.965 0.49,-2.917 l 4.526,0.869 c -0.129,0.667 -0.233,1.363 -0.345,2.048 -2.931,17.926 -0.523,41.827 1.102,57.856 0.094,0.93 0.184,1.831 0.273,2.715 0.129,-5.888 -0.069,-12.861 -0.276,-20.075 -0.381,-13.275 -0.802,-28.148 0.644,-40.496 0.149,-1.259 0.308,-2.5 0.496,-3.703 l 4.552,0.713 c -0.153,0.974 -0.285,1.975 -0.41,2.99 -1.484,12.105 -1.059,27.051 -0.677,40.365 0.204,7.082 0.39,13.635 0.302,19.305 1.256,-9.119 1.378,-20.569 1.494,-31.769 0.098,-9.543 0.203,-19.366 1,-27.901 0.102,-1.083 0.209,-2.151 0.334,-3.19 l 4.574,0.55 c -0.103,0.856 -0.19,1.749 -0.276,2.64 -0.817,8.443 -0.926,18.335 -1.026,27.948 -0.113,10.963 -0.226,21.545 -1.274,30.425 2.866,-11.777 3.311,-26.697 3.704,-40.329 0.185,-6.4 0.372,-12.453 0.772,-18.044 0.043,-0.582 0.074,-1.186 0.122,-1.759 l 4.591,0.375 c -0.037,0.45 -0.061,0.928 -0.094,1.384 -0.41,5.583 -0.599,11.702 -0.785,18.177 -0.375,13.009 -0.797,27.159 -3.324,39.016 4.984,-14.485 5.484,-32.76 5.902,-48.213 0.085,-3.112 0.167,-6.116 0.281,-8.98 0.009,-0.234 0.017,-0.475 0.027,-0.708 l 4.604,0.194 c -0.007,0.17 -0.013,0.344 -0.02,0.514 -0.117,2.899 -0.2,5.946 -0.287,9.105 -0.408,15.066 -0.892,32.732 -5.471,47.492 -0.44,1.423 -0.918,2.817 -1.438,4.18 0.313,-0.577 0.638,-1.166 0.944,-1.79 0.374,-0.852 0.763,-1.732 1.16,-2.637 0.015,-0.033 0.031,-0.069 0.047,-0.105 0.184,-0.417 0.371,-0.84 0.56,-1.268 0.173,-0.479 0.347,-0.962 0.523,-1.451 0.351,-0.98 0.709,-1.98 1.076,-2.996 0.57,-2.091 1.295,-4.207 1.748,-6.448 0.241,-1.113 0.54,-2.219 0.74,-3.358 0.204,-1.138 0.407,-2.279 0.611,-3.421 0.215,-1.139 0.328,-2.3 0.496,-3.443 0.16,-1.146 0.316,-2.287 0.412,-3.43 0.112,-1.141 0.223,-2.271 0.333,-3.389 0.077,-1.123 0.152,-2.23 0.226,-3.322 0.158,-2.178 0.204,-4.299 0.293,-6.303 0.034,-2.012 0.105,-3.906 0.099,-5.667 0.033,-3.514 0,-6.451 -0.017,-8.509 -0.024,-2.062 -0.037,-3.24 -0.037,-3.24 h 2.304 2.304 c 0,0 -0.004,0.27 -0.011,0.76 -0.006,0.554 -0.017,1.393 -0.032,2.489 -0.035,2.069 -0.074,5.029 -0.193,8.59 -0.04,1.779 -0.159,3.712 -0.243,5.753 -0.141,2.044 -0.241,4.198 -0.459,6.427 -0.103,1.113 -0.207,2.246 -0.313,3.392 -0.141,1.146 -0.283,2.304 -0.428,3.472 -0.126,1.169 -0.317,2.342 -0.51,3.519 -0.202,1.176 -0.35,2.363 -0.6,3.538 -0.24,1.175 -0.48,2.35 -0.72,3.52 -0.235,1.171 -0.574,2.321 -0.852,3.469 -0.528,2.305 -1.337,4.506 -1.988,6.664 -0.328,0.848 -0.647,1.676 -0.965,2.499 -0.077,0.2 -0.157,0.411 -0.236,0.61 -0.198,0.506 -0.392,1.008 -0.586,1.504 -0.226,0.483 -0.45,0.959 -0.671,1.43 -0.442,0.94 -0.872,1.854 -1.288,2.737 -0.451,0.868 -0.945,1.678 -1.387,2.471 -0.462,0.784 -0.858,1.553 -1.319,2.251 -0.479,0.691 -0.932,1.348 -1.36,1.965 -0.427,0.614 -0.827,1.189 -1.197,1.722 -0.387,0.503 -0.766,0.92 -1.095,1.32 -0.488,0.579 -0.897,1.065 -1.223,1.45 0.211,0.607 0.131,1.816 0.154,3.199 -3.596,1.516 -2.084,3.963 -0.126,4.196 -0.367,5.196 -3.224,11.658 -6.656,15.799 -0.561,0.679 -1.139,1.285 -1.723,1.823 -0.379,8.643 -1.9,23.439 -4.628,45.218 l -0.429,3.429 -2.319,0.562 c -7.35,1.778 -120.865,21.438 -131.894,23.346 l 1.007,5.099 c 1.227,-0.242 122.838,-24.239 133.091,-25.315 l 2.922,-0.305 0.16,-2.771 c 12.873,2.654 25.742,5.333 38.633,7.914 -12.845,-3.021 -25.71,-5.943 -38.57,-8.891 0.145,-2.006 0.436,-4.809 0.799,-8.021"
           style="fill:#000000;fill-opacity:1;fill-rule:nonzero;stroke:none"
           id="path1418"
           inkscape:connector-curvature="0" /></g></g></g></svg>